<svg xmlns="http://www.w3.org/2000/svg" viewBox="0 0 261.12 470.4">
    <defs><style>
        .cls-1,.cls-2,.cls-3,.cls-4{fill:none;stroke-miterlimit:10;stroke-width:3px;}
        .cls-1{stroke:#000;}
        .cls-2{stroke:#315aa6;}
        .cls-3{stroke:#dd2d88;}
        .cls-4{stroke:#f8ee79;}
        </style></defs>

    <title>HUSET-logo</title>
    <g id="Ebene_3" data-name="Ebene 3">
        <polyline class="cls-1" points="2.15 70.44 2.15 1.5 20.17 1.5 20.17 63.95 59.57 63.54 59.57 1.5 79.28 1.5 79.28 70.44"/>
        <polyline class="cls-1" points="2.15 74.44 2.15 146.67 20.17 146.67 20.17 81.23 59.57 81.67 59.57 146.67 79.28 146.67 79.28 74.44"/>
        <path class="cls-1" d="M505.74,425.53V391.06h17.6V493.83s-.84,20.62,15.93,25.5" transform="translate(-503.2 -231.18)"/>
        <path class="cls-1" d="M582.1,425.53V391.06H564.5V493.83s.84,20.62-15.93,25.5" transform="translate(-503.2 -231.18)"/>
        <path class="cls-1" d="M505.74,432.62v61.1s-1.18,30.81,19.6,39.2,36.85,0,36.85,0,20.33-6.88,19.91-39.2v-61.1" transform="translate(-503.2 -231.18)"/><path class="cls-1" d="M637.58,449.86s-26.56-9.35-18.7-31.8c3.47-9.93,15.2-12.9,24.61-11,10.27,2,15.93,10.91,16.16,21.1h18.71s1.87-26.21-26.19-37.77c-17.73-7.31-40.64,2.31-49.56,18.85-6.86,12.71-4.3,27.87,4.36,39,7.63,9.77,18.74,16.46,29.86,21.52" transform="translate(-503.2 -231.18)"/>
        <path class="cls-1" d="M643.94,474.18s19.83,7.11,17.21,23.57-15.34,21.7-29.55,16.08S620,495.09,620,495.09H600.17s1,32.33,30.61,40.32c17.22,4.64,36.24-4.13,45-19.43,7.16-12.54,8.74-32.94-3.52-42.8,0,0-10-9.6-28.68-18.7" transform="translate(-503.2 -231.18)"/>
        <polyline class="cls-1" points="1.95 391.11 1.95 322.29 79.92 322.29 79.92 341.2 19.64 341.11 20.36 384.88 51.04 384.88 51.04 391.11"/>
        <polyline class="cls-1" points="1.5 399.06 1.5 467.88 79.48 467.88 79.48 448.97 19.19 449.05 19.91 405.29 50.6 405.29 50.6 399.06"/>
        <polyline class="cls-1" points="129.42 322.29 95.48 322.29 95.48 340.11 125.08 340.11 124.36 467.88 129.42 467.88"/>
        <polyline class="cls-1" points="137.4 322.29 171.33 322.29 171.33 340.11 141.73 340.11 142.45 467.88 137.4 467.88"/>
        <polyline class="cls-1" points="189.18 401.43 189.18 466.75 259.02 396.2 189.18 324.35 189.18 387.06"/>
    </g>

    <g id="Logo_mit_Color" data-name="Logo mit Color">
        <polyline class="cls-1" points="59.57 146.67 79.28 146.67 79.28 74.44"/>
        <polyline class="cls-1" points="2.15 70.44 2.15 1.5 20.17 1.5 20.17 63.95 59.57 63.54 59.57 1.5 79.28 1.5 79.28 70.44"/>
        <polyline class="cls-1" points="2.15 74.44 2.15 146.67 20.17 146.67"/>
        <path class="cls-1" d="M505.74,425.53V391.06h17.6V493.83s-.84,20.62,15.93,25.5" transform="translate(-503.2 -231.18)"/>
        <path class="cls-1" d="M582.1,425.53V391.06H564.5V493.83s.84,20.62-15.93,25.5" transform="translate(-503.2 -231.18)"/>
        <path class="cls-1" d="M505.74,432.62v61.1s-1.18,30.81,19.6,39.2,36.85,0,36.85,0,20.33-6.88,19.91-39.2v-61.1" transform="translate(-503.2 -231.18)"/><path class="cls-1" d="M637.58,449.86s-26.56-9.35-18.7-31.8c3.47-9.93,15.2-12.9,24.61-11,10.27,2,15.93,10.91,16.16,21.1h18.71s1.87-26.21-26.19-37.77c-17.73-7.31-40.64,2.31-49.56,18.85-6.86,12.71-4.3,27.87,4.36,39,7.63,9.77,18.74,16.46,29.86,21.52" transform="translate(-503.2 -231.18)"/>
        <path class="cls-1" d="M643.94,474.18s19.83,7.11,17.21,23.57-15.34,21.7-29.55,16.08S620,495.09,620,495.09H601.48" transform="translate(-503.2 -231.18)"/>
        <polyline class="cls-1" points="1.95 391.11 1.95 322.29 79.92 322.29 79.92 341.2 19.64 341.11 20.36 384.88 51.04 384.88 51.04 391.11"/>
        <polyline class="cls-1" points="1.5 399.06 1.5 467.88 79.48 467.88 79.48 448.97 19.19 449.05 19.91 405.29 50.6 405.29 50.6 399.06"/>
        <polyline class="cls-1" points="129.42 322.29 95.48 322.29 95.48 340.11 125.08 340.11 124.36 467.88 129.42 467.88"/>
        <polyline class="cls-1" points="137.4 322.29 171.33 322.29 171.33 340.11 141.73 340.11 142.45 467.88 137.4 467.88"/>
        <polyline class="cls-2" points="189.18 401.43 189.18 466.75 259.02 396.2 189.18 324.35 189.18 387.06"/>
        <polyline class="cls-3" points="19.3 148.28 19.3 82.83 58.7 83.27 58.7 148.28"/>
        <path class="cls-4" d="M601.48,493.16s1,33,30.61,41c17.23,4.64,36.24-4.12,45-19.43,7.17-12.54,8.75-32.93-3.52-42.8,0,0-10-9.59-28.68-18.7" transform="translate(-503.2 -231.18)"/></g>
</svg>
